# xmcd CD database file
#
# Track frame offsets:
#	150
#	12041
#	42489
#	55022
#	78393
#	87861
#	103487
#	109277
#	140088
#	155671
#	171492
#	181545
#	191933
#	204466
#
# Disc length: 2799 seconds
#
# Revision: 0
# Processed by: cddbd v1.4PL0 Copyright (c) Steve Scherf et al.
# Submitted via: CDex 1.50
#
DISCID=c40aed0e
DTITLE=Himalayan Voices - Journeys
DYEAR=2002
DGENRE=New Age
TTITLE0=First Steps
TTITLE1=Unfolding
TTITLE2=Chorale
TTITLE3=New England Journey
TTITLE4=Balance
TTITLE5=Listening
TTITLE6=Refresher
TTITLE7=Cloud's Journey
TTITLE8=Towers
TTITLE9=Metamorphosis
TTITLE10=Spirit Call
TTITLE11=The Plains
TTITLE12=Arriving
TTITLE13=Reflection
EXTD=YEAR: 2002
EXTT0=
EXTT1=
EXTT2=
EXTT3=
EXTT4=
EXTT5=
EXTT6=
EXTT7=
EXTT8=
EXTT9=
EXTT10=
EXTT11=
EXTT12=
EXTT13=
PLAYORDER=
